<?xml version="1.0" encoding="UTF-8" standalone="no"?>
<!-- Created with Inkscape (http://www.inkscape.org/) -->

<svg
   width="23mm"
   height="23mm"
   viewBox="0 0 23 23"
   version="1.1"
   id="svg5"
   xml:space="preserve"
   inkscape:version="1.2.2 (b0a8486541, 2022-12-01)"
   sodipodi:docname="logo.svg"
   inkscape:export-filename="logo_banner.png"
   inkscape:export-xdpi="706.78265"
   inkscape:export-ydpi="706.78265"
   xmlns:inkscape="http://www.inkscape.org/namespaces/inkscape"
   xmlns:sodipodi="http://sodipodi.sourceforge.net/DTD/sodipodi-0.dtd"
   xmlns="http://www.w3.org/2000/svg"
   xmlns:svg="http://www.w3.org/2000/svg"><sodipodi:namedview
     id="namedview7"
     pagecolor="#ffffff"
     bordercolor="#000000"
     borderopacity="0.25"
     inkscape:showpageshadow="2"
     inkscape:pageopacity="0.0"
     inkscape:pagecheckerboard="0"
     inkscape:deskcolor="#d1d1d1"
     inkscape:document-units="mm"
     showgrid="false"
     inkscape:zoom="9.5024032"
     inkscape:cx="68.929931"
     inkscape:cy="29.939795"
     inkscape:window-width="2560"
     inkscape:window-height="1531"
     inkscape:window-x="0"
     inkscape:window-y="32"
     inkscape:window-maximized="1"
     inkscape:current-layer="layer1" /><defs
     id="defs2"><marker
   style="overflow:visible"
   id="Arrow1L"
   refX="0"
   refY="0"
   orient="auto-start-reverse"
   inkscape:stockid="Arrow1L"
   markerWidth="2"
   markerHeight="2.5710001"
   viewBox="0 0 8.75 5"
   inkscape:isstock="true"
   inkscape:collect="always"
   preserveAspectRatio="none"><path
     style="fill:context-stroke;fill-rule:evenodd;stroke:none"
     d="M 0,0 5,-5 -12.5,0 5,5 Z"
     id="arrow1L"
     transform="scale(-0.5)" /></marker>
	
	
</defs><g
     inkscape:label="Layer 1"
     inkscape:groupmode="layer"
     id="layer1"
     transform="translate(-68.934196,-76.901756)"><rect
       style="opacity:1;fill:#ffffff;stroke:none;stroke-width:2.483"
       id="rect10590"
       width="23"
       height="23"
       x="68.934196"
       y="76.901756"
       rx="3"
       ry="3" /><path
       id="path2724"
       style="opacity:1;fill:none;stroke:#ee4c2c;stroke-width:2.483;marker-mid:url(#Arrow1L)"
       d="m 87.698721,85.450507 c 1.257285,2.923401 0.60682,6.444123 -1.871375,8.716373 -3.133785,2.873358 -8.003537,2.662242 -10.876895,-0.471543 -2.873359,-3.133786 -2.662242,-8.003537 0.471544,-10.876896 2.387877,-2.189438 5.783678,-2.587994 8.536154,-1.267252"
       sodipodi:nodetypes="csssc" /><g
       aria-label="i"
       id="text2242"
       style="font-size:4.5861px;opacity:1;fill:#ff0000;stroke-width:0.264583"
       transform="translate(10.86012,-0.24262941)"><path
         d="m 72.063009,91.438911 q 0,-0.08509 0.03583,-0.179144 l 0.371724,-0.987535 q 0.06046,-0.167948 0.06046,-0.275434 0,-0.136598 -0.100769,-0.136598 -0.181384,0 -0.300067,0.188102 -0.116444,0.185862 -0.172427,0.416511 -0.009,0.02911 -0.03807,0.02911 h -0.05374 q -0.03807,0 -0.03807,-0.04255 v -0.01344 q 0.0739,-0.273195 0.22617,-0.48369 0.152273,-0.212734 0.385161,-0.212734 0.16347,0 0.275435,0.107486 0.114205,0.107487 0.114205,0.273196 0,0.08509 -0.03807,0.179144 l -0.371725,0.985295 q -0.0627,0.152273 -0.0627,0.275435 0,0.136598 0.105247,0.136598 0.179145,0 0.297828,-0.190341 0.120923,-0.192581 0.170187,-0.414272 0.009,-0.02687 0.03583,-0.02687 h 0.05598 q 0.01791,0 0.02911,0.01344 0.0112,0.0112 0.0112,0.02687 0,0.0045 -0.0045,0.01344 -0.0627,0.259759 -0.219452,0.479211 -0.154512,0.219452 -0.385161,0.219452 -0.16123,0 -0.275435,-0.109726 -0.114204,-0.111965 -0.114204,-0.270956 z m 0.517279,-2.449801 q 0,-0.09629 0.08062,-0.174666 0.08061,-0.07838 0.176905,-0.07838 0.07838,0 0.12764,0.04926 0.0515,0.04703 0.0515,0.120922 0,0.103008 -0.08285,0.181384 -0.08062,0.07614 -0.179145,0.07614 -0.0739,0 -0.125401,-0.04927 -0.04927,-0.0515 -0.04927,-0.125401 z"
         style="font-style:italic;font-family:cmmi10;-inkscape-font-specification:'cmmi10 Italic';opacity:1;stroke-width:0.00440052"
         id="path867" /></g><g
       aria-label="j"
       id="text2242-3"
       style="font-size:4.5861px;fill:#008000;stroke-width:0.264583"
       transform="translate(10.86012,-0.24262941)"><path
         d="m 66.369257,91.848286 q 0,-0.111965 0.07614,-0.19482 0.07838,-0.08061 0.190341,-0.08061 0.0739,0 0.123162,0.04479 0.0515,0.04703 0.0515,0.120923 0,0.08733 -0.05598,0.156751 -0.05374,0.07166 -0.136597,0.09405 0.08062,0.02911 0.16123,0.02911 0.19482,0 0.338135,-0.181384 0.143316,-0.179144 0.201538,-0.403075 l 0.432186,-1.724266 q 0.03135,-0.132119 0.03135,-0.223931 0,-0.197059 -0.136597,-0.197059 -0.201538,0 -0.353811,0.183623 -0.150033,0.181384 -0.244084,0.42099 -0.009,0.02911 -0.03583,0.02911 H 66.9582 q -0.03807,0 -0.03807,-0.04255 v -0.01344 q 0.103008,-0.275434 0.293349,-0.485929 0.190341,-0.210495 0.441144,-0.210495 0.190341,0 0.311263,0.118683 0.123162,0.118684 0.123162,0.302307 0,0.06494 -0.01344,0.12988 l -0.434425,1.74218 q -0.04703,0.185863 -0.179145,0.340375 -0.132119,0.154512 -0.315742,0.244084 -0.183623,0.08957 -0.376203,0.08957 -0.154513,0 -0.277674,-0.0739 -0.123162,-0.0739 -0.123162,-0.214973 z m 1.45107,-3.430618 q 0,-0.100769 0.07838,-0.176905 0.07838,-0.07614 0.176905,-0.07614 0.07838,0 0.127641,0.04927 0.0515,0.04703 0.0515,0.120923 0,0.103008 -0.08285,0.181384 -0.08061,0.07614 -0.179145,0.07614 -0.0739,0 -0.123162,-0.0515 -0.04926,-0.0515 -0.04926,-0.123162 z"
         style="font-style:italic;font-family:cmmi10;-inkscape-font-specification:'cmmi10 Italic';opacity:1;fill:#008000;stroke-width:0.00440052"
         id="path870" /></g><g
       aria-label="k"
       id="text2242-3-7"
       style="font-size:4.5861px;fill:#0000ff;stroke-width:0.264583"
       transform="translate(10.86012,-0.24262941)"><path
         d="m 69.231511,87.239694 q 0,-0.02687 0.0045,-0.04031 l 0.665074,-2.651339 q 0.01791,-0.07838 0.02239,-0.123162 0,-0.0739 -0.297828,-0.0739 -0.04703,0 -0.04703,-0.06046 0.0022,-0.0112 0.009,-0.04031 0.009,-0.02911 0.02015,-0.04479 0.01344,-0.01568 0.03583,-0.01568 l 0.618048,-0.04926 h 0.01344 q 0,0.0045 0.01567,0.01344 0.01568,0.0067 0.01792,0.009 0.009,0.02239 0.009,0.03583 L 69.836224,86.1156 q 0.165709,-0.06942 0.416511,-0.329178 0.253042,-0.261999 0.394118,-0.376204 0.143316,-0.114205 0.358289,-0.114205 0.127641,0 0.217213,0.08733 0.08957,0.08733 0.08957,0.214974 0,0.08062 -0.03359,0.150033 -0.03359,0.06718 -0.09405,0.109726 -0.06046,0.04255 -0.141077,0.04255 -0.0739,0 -0.125401,-0.04479 -0.04927,-0.04702 -0.04927,-0.120923 0,-0.109726 0.07614,-0.183623 0.07838,-0.07614 0.188102,-0.07614 -0.04479,-0.06046 -0.136598,-0.06046 -0.136598,0 -0.264238,0.07837 -0.125402,0.07838 -0.273196,0.22617 -0.145555,0.145555 -0.266477,0.268717 -0.120923,0.120923 -0.223931,0.183623 0.270956,0.03135 0.470254,0.143316 0.199299,0.109726 0.199299,0.338135 0,0.04703 -0.01791,0.118683 -0.04031,0.172427 -0.04031,0.275435 0,0.206016 0.141076,0.206016 0.165709,0 0.250802,-0.181383 0.08733,-0.181384 0.143316,-0.423229 0.009,-0.02687 0.03807,-0.02687 h 0.05374 q 0.01791,0 0.02911,0.0112 0.01344,0.0112 0.01344,0.02911 0,0.0045 -0.0045,0.01344 -0.172427,0.698664 -0.532955,0.698664 -0.12988,0 -0.230649,-0.06046 -0.09853,-0.06046 -0.152273,-0.16347 -0.05374,-0.105247 -0.05374,-0.235127 0,-0.0739 0.02015,-0.152273 0.01344,-0.05374 0.01344,-0.100769 0,-0.176905 -0.156752,-0.268716 -0.156751,-0.09181 -0.358289,-0.111966 l -0.232888,0.93603 q -0.01791,0.06942 -0.06942,0.111966 -0.0515,0.04479 -0.118683,0.04479 -0.05822,0 -0.100769,-0.04031 -0.04031,-0.03807 -0.04031,-0.09405 z"
         style="font-style:italic;font-family:cmmi10;-inkscape-font-specification:'cmmi10 Italic';opacity:1;fill:#0000ff;stroke-width:0.00440052"
         id="path873" /></g><path
       style="fill:none;fill-rule:evenodd;stroke:#000000;stroke-width:0.264583px;stroke-linecap:butt;stroke-linejoin:miter;stroke-opacity:1"
       d="m 103.9929,94.046343 v 0"
       id="path4773"
       inkscape:connector-type="polyline"
       inkscape:connector-curvature="0" /><text
       xml:space="preserve"
       style="font-style:italic;font-size:4.5861px;font-family:cmmi10;-inkscape-font-specification:'cmmi10 Italic';opacity:1;fill:#ffffff;stroke:none;stroke-width:2.483"
       x="91.427689"
       y="89.395325"
       id="text16886"><tspan
         sodipodi:role="line"
         id="tspan16884"
         style="stroke-width:2.483"
         x="91.427689"
         y="89.395325" /></text></g></svg>
